<svg viewBox="0 0 19 16" width="19" height="16" >
    <path d="M0.286995 7.44244C2.23075 6.35378 4.4005 5.44519 6.42781 4.53195C9.91556 3.03612 13.4172 1.56623 16.9541 0.19777C17.6422 -0.0354018 18.8788 -0.26336 19 0.773585C18.9336 2.24137 18.6605 3.70056 18.4732 5.15975C17.9978 8.36864 17.4481 11.5665 16.9123 14.7649C16.7276 15.8301 15.4151 16.3817 14.5753 15.7C12.557 14.3137 10.5232 12.9411 8.53063 11.5227C7.87786 10.8483 8.48324 9.87996 9.06604 9.3984C10.7284 7.73253 12.4913 6.31743 14.0668 4.56562C14.4917 3.52205 13.2361 4.40148 12.8219 4.671C10.5462 6.26559 8.32611 7.95753 5.92677 9.35895C4.70118 10.0449 3.27274 9.4587 2.04771 9.07591C0.949324 8.61351 -0.660218 8.14759 0.286856 7.44258L0.286995 7.44244Z"></path>
</svg>
