<svg xmlns="http://www.w3.org/2000/svg" width="50" height="50" viewBox="-3 -3 22 22" id="icon"><path d="M15.916.075S9.636-.623 6.844 2.17c-2.628 2.634-3.807 6.308-2.19 8.48L.005 15.303l.698.7 4.646-4.653c2.17 1.62 5.842.44 8.472-2.192.115-.115.2-.257.302-.385l.047.035.08-.198c.087-.117.19-.22.268-.342l-.118-.033.178-.446-1.453-.73 2.013-.67.29-.727h.15c.652-2.72.338-5.588.338-5.588zM5.316 6.23l.83.832.698-.698-1.088-1.09c.16-.293.33-.584.527-.87l1.26 1.26.697-.698-1.358-1.36c.21-.25.425-.5.66-.736C9.682.726 13.012.787 14.376.918l-9.02 9.03c-.645-.97-.583-2.323-.04-3.718zm9.43-.642L11.38 6.712l1.967 1.476c-.07.092-.138.186-.222.27-2.244 2.248-5.3 3.37-7.07 2.188l9.022-9.032c.08.83.125 2.394-.33 3.974z"/></svg>
