<svg xmlns="http://www.w3.org/2000/svg" viewBox="0 0 96 96" width="39" height="49">
  <defs/>
  <path fill="#006360" d="M48 26c-.136 0-.272-.012-.412-.048l-19.2-4a1.99 1.99 0 01-1.548-2.36c.224-1.084 1.26-1.804 2.364-1.56l19.2 4a1.993 1.993 0 011.548 2.364A1.99 1.99 0 0148 26z"/>
  <path fill="#006360" d="M48 26a2 2 0 01-1.956-1.592 1.99 1.99 0 011.548-2.36l19.2-4c1.084-.252 2.136.46 2.364 1.556a1.994 1.994 0 01-1.548 2.364l-19.2 4c-.14.02-.276.032-.408.032zM40 86a2.009 2.009 0 01-1.416-.584 2.001 2.001 0 010-2.828l8-8a2.016 2.016 0 012.828 0c.78.78.78 2.056 0 2.828l-8 8c-.388.388-.9.584-1.412.584z"/>
  <path fill="#006360" d="M56 86a2.009 2.009 0 01-1.416-.584l-8-8a2.001 2.001 0 010-2.828 2.016 2.016 0 012.828 0l8 8c.776.78.776 2.056 0 2.828-.388.388-.9.584-1.412.584zM84 4H12c-1.104 0-2-.9-2-2s.896-2 2-2h72c1.1 0 2 .9 2 2s-.9 2-2 2zM76 12H20c-1.104 0-2-.9-2-2s.896-2 2-2h56c1.1 0 2 .9 2 2s-.9 2-2 2z"/>
  <path fill="#006360" d="M76 12a2.009 2.009 0 01-1.416-.584 2.001 2.001 0 010-2.828l8-8a2.016 2.016 0 012.828 0c.776.78.776 2.056 0 2.828l-8 8c-.388.388-.9.584-1.412.584zM20 12a2.009 2.009 0 01-1.416-.584l-8-8a2.001 2.001 0 010-2.828 2.016 2.016 0 012.828 0l8 8c.78.78.78 2.056 0 2.828-.388.388-.9.584-1.412.584zM84 96H12c-1.104 0-2-.9-2-2s.896-2 2-2h72c1.1 0 2 .9 2 2s-.9 2-2 2zM76 88H20c-1.104 0-2-.9-2-2s.896-2 2-2h56c1.1 0 2 .9 2 2s-.9 2-2 2z"/>
  <path fill="#006360" d="M84 96a2.009 2.009 0 01-1.416-.584l-8-8a2.001 2.001 0 010-2.828 2.016 2.016 0 012.828 0l8 8c.776.78.776 2.056 0 2.828-.388.388-.9.584-1.412.584zM12 96a2.009 2.009 0 01-1.416-.584 2.001 2.001 0 010-2.828l8-8a2.016 2.016 0 012.828 0c.78.78.78 2.056 0 2.828l-8 8c-.388.388-.9.584-1.412.584zM48 50C35.164 50 24.372 32.408 22.34 8.172l3.984-.34C28.152 29.584 37.468 46 48 46S67.848 29.584 69.676 7.832l3.984.34C71.628 32.408 60.836 50 48 50z"/>
  <path fill="#006360" d="M26.324 88.172l-3.984-.34C24.376 63.592 35.168 46 48 46c12.836 0 23.628 17.592 25.66 41.832l-3.984.34C67.852 66.416 58.532 50 48 50c-10.528 0-19.848 16.416-21.676 38.172z"/>
  <path fill="#006360" d="M46 58c-1.104 0-2-.9-2-2v-4c0-1.1.896-2 2-2s2 .9 2 2v4c0 1.1-.896 2-2 2zM50 66c-1.104 0-2-.9-2-2v-4c0-1.1.896-2 2-2 1.1 0 2 .9 2 2v4c0 1.1-.9 2-2 2zM46 74c-1.104 0-2-.9-2-2v-4c0-1.1.896-2 2-2s2 .9 2 2v4c0 1.1-.896 2-2 2z"/>
</svg>
