<?xml version="1.0" standalone="no"?>
<!DOCTYPE svg PUBLIC "-//W3C//DTD SVG 20010904//EN"
 "http://www.w3.org/TR/2001/REC-SVG-20010904/DTD/svg10.dtd">
<svg version="1.0" xmlns="http://www.w3.org/2000/svg"
 width="512.000000pt" height="512.000000pt" viewBox="0 0 512.000000 512.000000"
 preserveAspectRatio="xMidYMid meet">
<metadata>
Created by potrace 1.11, written by Peter Selinger 2001-2013
</metadata>
<g transform="translate(0.000000,512.000000) scale(0.100000,-0.100000)"
fill="#000000" stroke="none">
<path d="M2472 5039 c-31 -12 -24 -30 19 -46 l34 -13 -42 6 c-34 4 -44 2 -49
-10 -3 -9 -12 -16 -20 -16 -8 0 -14 -7 -14 -15 0 -10 -10 -15 -29 -15 -29 0
-49 -15 -37 -27 4 -4 23 -8 44 -9 51 -3 52 -3 52 -12 0 -5 -29 -10 -65 -11
-36 -1 -65 2 -65 7 0 16 -33 24 -41 10 -6 -9 -11 -9 -21 0 -16 13 -38 -2 -38
-25 0 -13 16 -17 58 -13 12 1 22 -4 22 -10 0 -8 11 -11 30 -8 23 3 27 2 19 -8
-8 -9 -18 -10 -39 -2 -25 8 -36 6 -65 -12 -62 -38 -68 -76 -14 -84 104 -16
108 -16 118 1 8 15 16 10 65 -37 58 -56 63 -75 17 -65 -19 4 -32 1 -41 -9 -8
-10 -27 -15 -52 -14 -49 2 -89 -31 -69 -56 11 -14 17 -14 47 -1 43 18 58 12
82 -30 21 -35 54 -47 92 -33 l23 8 -24 27 -24 26 33 -17 c18 -9 37 -14 42 -11
8 5 5 43 -5 74 -4 9 0 11 12 5 40 -17 76 -10 92 19 17 30 17 31 -33 62 -9 6
-17 22 -18 37 -2 24 -9 30 -56 43 -38 11 -56 23 -64 40 -12 27 -27 32 -44 15
-8 -8 -18 -5 -35 10 l-24 20 28 -10 c35 -12 67 2 67 31 0 11 4 18 9 14 6 -3
25 4 43 15 18 11 43 20 54 20 12 0 32 9 46 19 16 13 47 21 89 25 91 8 122 15
139 32 28 28 -10 42 -118 42 -53 1 -113 6 -132 11 -42 13 -67 13 -98 0z"/>
<path d="M2313 5000 c-37 -34 -43 -55 -14 -47 10 2 26 0 35 -5 12 -7 25 -3 46
12 34 24 39 45 13 53 -10 2 -25 7 -33 11 -9 4 -28 -6 -47 -24z"/>
<path d="M2835 4964 c-22 -8 -69 -16 -105 -19 -35 -3 -70 -11 -77 -18 -29 -29
29 -67 138 -91 18 -4 29 -14 33 -32 4 -14 16 -38 27 -53 24 -32 20 -75 -10
-104 -16 -16 -17 -24 -9 -49 8 -21 7 -37 -1 -55 -6 -14 -9 -34 -5 -45 9 -29
92 -108 114 -108 27 0 87 55 111 102 18 36 37 47 53 31 15 -15 43 -11 81 11
37 22 46 23 135 17 103 -8 110 -7 110 15 0 8 3 13 8 13 23 -4 23 4 -2 30 -31
32 -28 58 4 41 25 -13 40 12 33 58 -5 32 -5 32 20 21 14 -6 34 -8 44 -4 16 6
14 11 -18 38 -90 79 -282 148 -449 163 -25 2 -67 15 -93 29 -55 28 -85 30
-142 9z m573 -371 c16 -16 16 -16 -1 -10 -10 4 -23 7 -28 7 -6 0 -7 5 -4 10 9
14 14 13 33 -7z"/>
<path d="M2118 4824 c-16 -8 -28 -23 -28 -34 0 -20 24 -28 35 -11 3 5 19 12
35 16 21 5 30 13 30 26 0 23 -33 25 -72 3z"/>
<path d="M2032 4804 c-13 -9 -33 -14 -45 -10 -23 6 -47 -9 -47 -29 0 -6 11
-18 25 -25 20 -11 28 -10 49 4 14 9 33 16 42 16 16 0 16 -2 -1 -20 -10 -11
-26 -20 -36 -20 -10 0 -21 -4 -24 -10 -3 -5 -16 -10 -29 -10 -13 0 -31 -9 -40
-19 -17 -18 -17 -20 0 -29 16 -9 15 -11 -5 -22 -17 -8 -26 -9 -34 -1 -6 6 -19
11 -29 11 -24 0 -23 17 2 25 11 3 25 15 30 25 9 17 6 21 -16 26 l-27 7 24 18
c37 29 9 40 -58 22 -48 -12 -57 -12 -72 0 -18 16 -80 16 -122 -1 -15 -6 -40
-28 -58 -49 -49 -60 -39 -85 22 -53 26 14 37 16 40 7 2 -7 -3 -17 -12 -23 -13
-10 -13 -15 -2 -27 7 -9 20 -14 29 -11 9 2 7 -1 -6 -7 -20 -11 -25 -9 -38 9
-12 18 -19 20 -34 12 -11 -6 -57 -13 -102 -15 -46 -3 -84 -9 -86 -15 -2 -5
-26 -16 -53 -25 -28 -10 -53 -23 -55 -30 -7 -18 -70 -42 -173 -65 -155 -36
-402 -175 -436 -248 -11 -21 -33 -41 -64 -56 -48 -25 -78 -52 -68 -62 3 -3 15
-1 26 6 12 6 21 7 21 2 0 -6 -26 -22 -57 -37 -60 -28 -133 -98 -159 -152 -9
-18 -20 -33 -25 -33 -18 0 -80 -63 -70 -73 10 -10 56 20 121 78 45 41 268 181
317 199 69 26 89 27 114 6 22 -18 22 -19 3 -14 -12 3 -26 -1 -34 -11 -17 -21
-4 -32 20 -17 11 7 22 12 25 12 10 0 -25 -72 -49 -101 -25 -30 -25 -48 -1 -79
33 -41 14 -74 -65 -115 -15 -8 -33 -28 -40 -45 -7 -16 -16 -30 -20 -30 -13 0
-80 -73 -80 -87 0 -8 -16 -30 -35 -50 -40 -41 -50 -66 -37 -89 6 -11 5 -36 -3
-69 -11 -49 -10 -54 11 -78 17 -20 22 -36 19 -64 -3 -21 1 -50 7 -65 8 -21 7
-36 -2 -57 -13 -32 -4 -56 20 -56 9 0 15 -13 16 -40 3 -41 23 -65 57 -65 14 0
17 4 12 18 -4 9 -11 42 -15 73 -4 30 -12 64 -17 75 -5 10 -9 26 -8 34 1 8 -2
22 -6 31 -8 17 6 47 17 36 4 -4 7 -23 6 -43 -1 -23 6 -46 18 -61 10 -13 17
-30 14 -36 -2 -7 12 -37 31 -67 30 -46 35 -63 34 -105 -3 -79 30 -122 141
-190 74 -44 91 -48 132 -31 31 14 37 13 64 -4 16 -10 45 -32 64 -49 19 -17 42
-32 50 -32 8 -1 20 -3 25 -4 6 -2 16 -3 23 -4 6 0 12 -9 12 -19 0 -11 9 -27
20 -37 12 -10 18 -25 15 -33 -7 -19 19 -59 44 -67 11 -3 23 -14 26 -24 3 -12
15 -18 31 -18 13 -1 33 -8 43 -17 23 -21 49 -11 57 21 17 65 58 -13 69 -132 5
-53 -3 -70 -79 -184 -40 -58 -44 -82 -20 -102 11 -9 14 -22 9 -43 -14 -64 -9
-82 43 -151 39 -51 54 -81 63 -125 15 -75 45 -119 165 -242 154 -157 162 -172
165 -308 1 -65 9 -134 23 -205 2 -11 7 -40 11 -65 4 -25 9 -52 10 -60 1 -8 6
-35 9 -60 17 -110 32 -158 63 -206 18 -28 33 -60 33 -71 0 -11 7 -26 15 -33
14 -12 14 -15 0 -30 -22 -24 -19 -40 14 -75 17 -16 38 -52 48 -80 11 -31 27
-54 41 -60 12 -5 22 -15 22 -21 0 -7 8 -14 18 -17 9 -2 24 -8 33 -11 10 -5 19
1 27 16 6 13 11 17 11 10 1 -7 -3 -21 -8 -30 -6 -12 -3 -24 10 -41 15 -19 30
-24 70 -26 66 -2 85 18 35 39 -20 8 -39 22 -43 31 -3 9 -16 20 -28 25 -27 10
-42 69 -25 99 16 31 12 76 -9 103 -13 16 -17 29 -11 39 5 7 7 24 3 36 -3 14
-1 23 6 23 6 0 11 9 11 20 0 11 -4 20 -9 20 -5 0 -12 7 -15 15 -4 11 0 15 12
13 13 -2 18 5 20 35 3 37 4 37 47 37 26 0 50 6 59 16 27 27 17 84 -21 122 -20
20 -11 24 26 11 17 -6 37 -9 45 -6 20 8 128 166 120 178 -3 6 3 19 15 30 12
11 22 26 22 34 1 8 2 21 3 28 1 6 -1 26 -5 43 -6 30 -3 34 58 74 35 24 78 45
96 49 29 5 37 16 90 121 63 125 62 118 41 272 -6 47 -6 48 55 115 99 110 109
150 54 210 -41 44 -81 69 -142 87 -74 22 -137 21 -151 -1 -10 -16 -11 -15 -6
6 7 33 -7 56 -44 71 -28 12 -35 10 -79 -18 -53 -32 -72 -33 -40 -1 23 23 24
33 3 54 -14 14 -19 14 -38 2 -11 -8 -22 -23 -24 -33 -3 -20 -42 -52 -42 -35 0
6 14 25 30 43 33 36 39 80 15 112 -8 11 -15 30 -15 43 0 45 -117 128 -152 107
-4 -3 -21 4 -37 15 -15 11 -31 18 -33 15 -3 -3 -20 14 -39 38 -18 24 -39 48
-47 55 -12 10 -13 17 -2 42 12 30 6 71 -11 71 -5 0 -12 -7 -15 -15 -4 -8 -17
-15 -30 -15 -13 0 -29 -9 -36 -20 -13 -21 -62 -28 -73 -10 -3 6 -17 10 -31 10
-29 0 -58 14 -98 47 -25 21 -31 22 -49 10 -11 -7 -28 -33 -38 -57 -10 -25 -18
-37 -18 -27 -1 10 8 35 19 56 17 34 17 41 5 51 -19 16 -50 5 -69 -25 -10 -14
-26 -25 -39 -25 -15 0 -28 -11 -41 -35 -23 -43 -53 -52 -96 -30 -30 15 -33 15
-66 -4 -19 -12 -39 -21 -43 -21 -18 0 -43 55 -42 89 3 86 2 135 -3 157 -7 26
-61 48 -99 39 l-24 -7 28 88 c16 47 29 97 29 109 0 59 -80 31 -140 -49 -48
-63 -72 -70 -127 -36 -72 44 -64 150 22 285 72 111 111 132 189 100 42 -18 64
-10 90 31 14 20 23 24 39 19 12 -4 34 -8 50 -9 39 -3 48 -16 54 -83 7 -73 22
-98 57 -89 37 9 49 70 33 173 -8 50 22 102 66 114 44 12 127 69 142 99 8 15
19 48 26 74 7 29 19 51 33 58 11 6 29 22 39 35 10 12 24 23 31 23 7 0 27 15
45 33 18 17 47 39 65 47 17 8 37 27 44 43 14 30 69 62 119 70 18 3 38 8 45 12
7 3 5 0 -4 -8 -22 -17 -24 -47 -3 -47 8 0 37 14 63 30 27 17 56 30 65 30 22 0
47 28 41 45 -4 11 -18 13 -50 10 -24 -2 -46 0 -49 5 -3 5 1 25 10 44 20 41 14
56 -22 56 -50 0 -17 8 57 15 41 3 93 11 115 17 124 32 206 128 117 136 -20 2
-32 9 -32 18 0 9 -5 25 -12 37 -6 12 -11 45 -11 72 1 76 -24 106 -59 72 -23
-22 -62 -47 -75 -47 -13 0 -6 30 10 41 5 4 6 16 2 28 -6 20 -36 33 -82 36 -12
0 -25 4 -29 8 -24 24 -105 -17 -126 -63 -7 -17 -16 -30 -19 -30 -7 0 -24 -41
-33 -80 -3 -14 -27 -40 -52 -59 -25 -19 -59 -54 -76 -79 -35 -51 -58 -45 -36
9 21 51 17 62 -22 67 -19 2 -44 12 -55 21 -11 10 -32 21 -48 25 l-27 6 28 53
c20 34 46 63 78 84 27 18 55 40 61 50 7 9 30 18 50 20 45 5 76 29 67 55 -3 12
0 18 9 18 10 0 13 -8 9 -25 -2 -14 -8 -25 -13 -25 -5 0 -9 -7 -9 -15 0 -23 28
-30 48 -12 12 11 22 13 35 6 23 -13 37 -3 37 27 0 19 -8 29 -32 39 -31 13 -25
20 14 16 25 -3 96 36 108 58 28 53 -3 65 -78 31 -53 -24 -58 -24 -54 1 3 16
-1 19 -21 14 -21 -6 -25 -3 -26 17 -4 99 -10 110 -49 82z m-340 -216 c-11 -11
-32 -3 -32 12 0 4 9 6 21 3 13 -4 17 -9 11 -15z m-2 -618 c33 -72 36 -75 65
-72 l30 3 -35 -30 -35 -30 -3 25 c-7 50 -75 13 -124 -68 -34 -55 -47 -58 -25
-6 8 19 38 54 67 79 38 33 51 51 47 63 -5 13 -11 15 -26 7 -14 -8 -22 -7 -31
4 -9 11 -17 12 -31 4 -13 -6 -19 -6 -19 0 0 33 106 51 120 21z"/>
<path d="M3442 4458 c-25 -25 -9 -46 59 -82 24 -13 45 -17 63 -12 53 13 44 70
-11 73 -17 0 -44 8 -61 17 -37 19 -35 19 -50 4z"/>
<path d="M4098 4259 c-16 -6 -31 -22 -37 -40 -8 -23 -16 -29 -39 -29 -54 0
-47 -50 12 -90 20 -14 37 -34 37 -45 1 -11 3 -25 3 -32 1 -6 11 -23 24 -37 27
-32 28 -40 2 -33 -14 4 -25 -2 -36 -18 -9 -14 -22 -21 -33 -18 -9 2 -23 -3
-30 -11 -7 -9 -36 -19 -63 -22 -66 -9 -72 -27 -23 -69 72 -59 47 -143 -26 -90
-36 27 -59 31 -90 15 -23 -13 -24 -33 -2 -70 15 -26 15 -31 -1 -70 l-17 -43
27 -28 c15 -16 38 -29 51 -29 12 0 27 -8 32 -18 8 -15 3 -26 -27 -54 -20 -19
-45 -38 -54 -41 -14 -5 -18 -17 -18 -51 0 -60 -10 -83 -60 -136 -48 -51 -105
-136 -126 -187 -13 -31 -13 -43 0 -102 18 -77 15 -104 -15 -144 -11 -15 -20
-36 -19 -45 1 -9 3 -41 5 -70 3 -50 6 -56 63 -110 46 -43 62 -66 67 -94 13
-71 126 -168 196 -168 14 0 30 9 37 21 11 18 19 20 50 14 57 -12 67 -9 122 34
32 25 62 41 79 41 31 0 71 -25 71 -45 0 -16 12 -25 42 -30 13 -3 30 -14 40
-25 9 -11 23 -20 32 -20 21 0 20 -12 -3 -52 -11 -18 -22 -49 -25 -69 -5 -31 0
-43 24 -74 17 -21 30 -43 30 -50 0 -7 9 -15 21 -18 19 -5 19 -8 6 -34 -13 -27
-14 -61 -4 -128 4 -22 -1 -37 -18 -55 -32 -34 -68 -169 -67 -250 1 -161 3
-202 12 -224 6 -18 4 -34 -11 -62 -21 -41 -23 -62 -11 -82 7 -10 15 -7 33 12
14 13 38 28 54 31 115 27 210 141 254 307 11 40 34 118 51 173 42 133 98 337
110 405 6 30 12 66 15 80 26 127 26 661 0 799 -1 9 -6 43 -9 76 -11 99 -30
135 -69 135 -11 0 -44 13 -73 30 -50 28 -55 29 -96 16 -51 -15 -70 -10 -117
32 -26 25 -40 30 -62 25 -27 -5 -31 -2 -60 61 -17 36 -36 69 -42 73 -6 4 -43
8 -83 9 -39 1 -80 6 -92 13 -30 16 -87 14 -102 -5 -28 -33 -45 -34 -91 -3 -44
29 -42 33 19 29 48 -2 82 23 82 61 0 17 10 43 23 59 12 15 27 36 33 46 10 16
15 17 33 7 27 -17 46 -16 61 2 16 19 20 16 129 -84 91 -83 111 -114 70 -106
-12 3 -28 1 -37 -4 -11 -6 -7 -14 20 -35 28 -21 34 -32 30 -51 -2 -14 0 -25 6
-25 11 0 25 26 27 53 1 10 11 28 22 40 11 12 25 31 31 42 10 19 11 18 17 -7 4
-15 15 -30 25 -33 10 -3 28 -22 39 -41 20 -33 46 -52 57 -41 3 3 0 24 -7 46
-7 23 -10 44 -6 47 10 10 47 -16 47 -33 0 -9 16 -31 35 -49 49 -45 47 -66 -5
-58 -32 5 -40 3 -40 -9 0 -35 71 -36 99 -2 18 24 19 28 4 70 -17 52 -28 62
-48 45 -12 -10 -15 -9 -15 8 0 11 7 23 16 26 14 5 14 9 0 33 -8 16 -22 53 -30
83 -10 35 -28 68 -50 92 -20 21 -38 50 -41 65 -14 64 -131 267 -210 362 -128
156 -211 208 -287 180z"/>
<path d="M3807 4141 c-4 -18 7 -41 49 -98 10 -14 12 -23 5 -23 -17 0 -13 -47
5 -54 13 -5 14 -9 4 -21 -23 -28 21 -50 48 -23 9 9 16 8 30 -5 26 -24 36 -21
49 13 10 28 9 32 -25 59 -21 16 -50 55 -67 86 -40 78 -86 109 -98 66z"/>
<path d="M3732 4107 c-6 -7 -10 -37 -9 -67 l2 -55 47 -1 c35 -1 48 2 53 14 3
9 2 18 -3 20 -5 1 -7 15 -4 31 3 22 -2 33 -23 50 -32 24 -48 26 -63 8z"/>
<path d="M2474 4064 c-51 -60 -52 -70 -12 -78 126 -24 177 -12 164 38 -4 18
-13 26 -29 26 -15 0 -26 10 -35 30 -19 42 -42 38 -88 -16z"/>
<path d="M765 4030 c-11 -17 5 -32 21 -19 8 6 14 15 14 20 0 12 -27 11 -35 -1z"/>
<path d="M721 3871 c-18 -32 -13 -43 17 -39 21 2 27 8 27 28 0 31 -30 39 -44
11z"/>
<path d="M4227 3613 c-17 -16 -6 -80 16 -101 48 -45 62 -11 27 66 -18 40 -29
49 -43 35z"/>
<path d="M4113 3562 c-39 -18 -51 -42 -22 -42 11 0 22 7 25 15 4 8 12 15 19
15 8 0 16 4 20 9 10 17 -10 19 -42 3z"/>
<path d="M1589 3183 c-21 -54 -28 -83 -18 -83 5 0 9 -7 9 -15 0 -8 7 -15 15
-15 9 0 15 9 15 24 0 13 6 26 14 29 19 8 29 56 15 73 -18 22 -39 17 -50 -13z"/>
<path d="M1660 3103 c0 -17 19 -35 29 -29 18 12 12 36 -9 36 -11 0 -20 -3 -20
-7z"/>
<path d="M1670 3045 c0 -8 7 -15 15 -15 8 0 15 7 15 15 0 8 -7 15 -15 15 -8 0
-15 -7 -15 -15z"/>
<path d="M1380 3020 c-25 -25 -21 -47 6 -42 71 13 94 13 123 -2 17 -9 31 -24
31 -34 0 -22 89 -55 124 -46 36 9 40 31 8 48 -15 8 -38 25 -52 38 -52 47 -61
51 -140 55 -70 4 -81 2 -100 -17z"/>
<path d="M1670 2995 c0 -28 21 -33 40 -10 15 18 5 35 -21 35 -14 0 -19 -7 -19
-25z"/>
<path d="M1738 2923 c-9 -2 -19 -15 -22 -28 -4 -17 -14 -25 -34 -27 -16 -2
-27 -9 -27 -18 0 -22 114 -33 158 -16 17 8 37 11 44 9 15 -5 25 11 18 30 -7
16 -85 58 -106 56 -8 -1 -21 -3 -31 -6z"/>
<path d="M1541 2867 c-12 -12 -15 -57 -3 -57 4 0 24 5 45 11 37 10 38 11 22
29 -21 23 -50 31 -64 17z"/>
<path d="M1904 2866 c-19 -15 -17 -25 8 -30 7 -2 21 -7 32 -11 19 -8 47 3 53
21 4 11 -38 34 -61 34 -6 0 -21 -6 -32 -14z"/>
<path d="M2012 2848 c5 -15 37 -18 41 -3 1 6 -9 12 -22 13 -16 3 -22 -1 -19
-10z"/>
<path d="M2062 2819 c2 -6 8 -10 13 -10 5 0 11 4 13 10 2 6 -4 11 -13 11 -9 0
-15 -5 -13 -11z"/>
<path d="M2110 2810 c0 -13 5 -18 14 -14 8 3 12 12 9 20 -8 21 -23 17 -23 -6z"/>
<path d="M2030 2800 c0 -13 10 -24 26 -30 34 -13 54 -13 54 1 0 6 -9 9 -20 6
-12 -3 -20 0 -20 7 0 6 -9 17 -20 24 -18 11 -20 10 -20 -8z"/>
<path d="M3332 2813 c-6 -3 -10 -9 -6 -14 7 -12 44 -12 44 0 0 11 -21 19 -38
14z"/>
<path d="M3420 2775 c0 -9 5 -15 11 -13 6 2 11 8 11 13 0 5 -5 11 -11 13 -6 2
-11 -4 -11 -13z"/>
<path d="M3380 2764 c0 -8 5 -12 10 -9 6 3 10 10 10 16 0 5 -4 9 -10 9 -5 0
-10 -7 -10 -16z"/>
<path d="M2125 2752 c-13 -9 -19 -31 -17 -64 1 -16 -2 -28 -7 -28 -9 0 -34
-49 -35 -70 -1 -24 29 -17 32 8 2 12 7 22 12 22 5 0 12 16 16 35 3 19 10 35
15 35 11 0 12 57 1 64 -4 2 -12 2 -17 -2z"/>
<path d="M3426 2743 c-7 -8 -11 -9 -37 -12 -6 0 -9 -7 -6 -13 5 -15 59 -11 69
5 12 20 -9 36 -26 20z"/>
<path d="M2170 2642 c0 -10 3 -22 7 -25 10 -11 32 13 26 29 -8 20 -33 17 -33
-4z"/>
<path d="M4320 2236 c0 -9 5 -16 10 -16 6 0 10 4 10 9 0 6 -4 13 -10 16 -5 3
-10 -1 -10 -9z"/>
<path d="M4300 2189 c0 -11 5 -17 10 -14 6 3 10 13 10 21 0 8 -4 14 -10 14 -5
0 -10 -9 -10 -21z"/>
</g>
</svg>
