<svg xmlns="http://www.w3.org/2000/svg" x="0" y="0" version="1.1" viewBox="0 0 900 900" xml:space="preserve" width="51" height="51">
  <style>
    .st0{fill:none;stroke:#006360;stroke-width:20;stroke-linecap:round;stroke-linejoin:round;stroke-miterlimit:10}
  </style>
  <path d="M444.5 825C238.52 825 70 656.48 70 450.5S238.52 76 444.5 76 819 244.52 819 450.5 650.48 825 444.5 825z" class="st0"/>
  <path d="M444.5 879C208.82 879 16 686.18 16 450.5S208.82 22 444.5 22 873 214.82 873 450.5 680.18 879 444.5 879z" class="st0"/>
  <circle cx="445.1" cy="451.1" r="34.14" class="st0"/>
  <path d="M311.73 451.1h93.2M445.1 266.98v143M282.3 169.13l14.47 26.25M282.3 170.33l14.47 26.25M281.11 170.33l14.47 26.25M162.69 289.94l25.66 15.5M119.95 452.73l29.97.6M164.33 615.09l26.25-14.47M283.94 733.5l15.5-25.65M446.73 776.25l.6-29.97M609.09 731.87l-14.47-26.25M727.5 612.26l-25.65-15.5M770.25 449.47l-29.97-.6M725.87 287.11l-26.25 14.47M606.26 168.69l-15.5 25.66M443.47 125.95l-.6 29.97" class="st0"/>
</svg>
