<svg xmlns="http://www.w3.org/2000/svg" viewBox="0 0 32 32" width="47" height="47"><path d="M15.531 1C13.036 1 11 3.015 11 5.5V8H9.562A.5.5 0 009.5 8h-3C5.678 8 5 8.678 5 9.5v20c0 .822.678 1.5 1.5 1.5h20a.5.5 0 00.5-.5v-21c0-.822-.678-1.5-1.5-1.5h-3.469V6.5a4.497 4.497 0 00-3.562-4.406A4.5 4.5 0 0015.53 1zm0 1c.326 0 .64.045.938.125C14.486 2.601 13 4.38 13 6.5V8h-1V5.5C12 3.555 13.57 2 15.531 2zm2 1c.17 0 .337.009.5.031.635.632 1 1.496 1 2.469V8H14V6.5C14 4.555 15.57 3 17.531 3zm2.156.75a3.44 3.44 0 011.344 2.75V8h-1V5.5a4.45 4.45 0 00-.344-1.75zM6.5 9h1.594A1.543 1.543 0 008 9.5c-.002.223-.15.474-.469.625-.32.152-.742.152-1.062 0C6.15 9.972 6.002 9.723 6 9.5c0-.071.007-.127.031-.188A.506.506 0 016.5 9zm3 0a.5.5 0 00.062 0H13v1.594c-.585.205-1 .755-1 1.406 0 .822.677 1.5 1.5 1.5S15 12.822 15 12c0-.651-.415-1.201-1-1.406V9h7.031v1.594A1.48 1.48 0 0020 12c0 .822.677 1.5 1.5 1.5S23 12.822 23 12c0-.64-.398-1.193-.969-1.406V9H25.5c.286 0 .5.214.5.5V30H9.5a.467.467 0 01-.188-.031A.506.506 0 019 29.5v-20c0-.071.007-.127.031-.188A.506.506 0 019.5 9zM6 11c.013.007.018.025.031.031.608.289 1.33.289 1.938 0 .013-.006.018-.024.031-.031v18.5c0 .171.04.346.094.5H6.5a.488.488 0 01-.5-.5V11zm7.5.5c.282 0 .5.218.5.5 0 .282-.218.5-.5.5a.493.493 0 01-.5-.5c0-.282.218-.5.5-.5zm8 0c.282 0 .5.218.5.5 0 .282-.218.5-.5.5a.493.493 0 01-.5-.5c0-.282.218-.5.5-.5z" fill="currentColor"/></svg>