<svg xmlns="http://www.w3.org/2000/svg" viewBox="0 0 512 512" width="51" height="51"><g fill="#006360"><path d="M256.016.009C114.632.009.013 114.599.013 256c0 141.371 114.62 255.991 256.003 255.991 141.369 0 255.972-114.62 255.972-255.991C511.987 114.599 397.384.009 256.016.009zm0 453.921c-109.338 0-197.99-88.622-197.99-197.93 0-109.339 88.652-197.961 197.99-197.961 109.322 0 197.959 88.622 197.959 197.961 0 109.308-88.636 197.93-197.959 197.93z"/><path d="M285.015 116.349h-57.998v168.65l143.055 60.529 22.687-53.435-107.744-45.718z"/></g></svg>