<svg xmlns="http://www.w3.org/2000/svg" viewBox="0 0 64 64" width="50" height="50"><path fill="#006360" d="M18.923 59.618a1 1 0 00-.217-.326l-3-3a1 1 0 00-1.414 1.414L15.586 59h-4.015A6.579 6.579 0 015 52.429v-5.015l1.293 1.293a1 1 0 001.414-1.414l-3-3a1 1 0 00-1.415 0l-3 3a1 1 0 001.414 1.414L3 47.414v5.015A8.581 8.581 0 0011.571 61h4.015l-1.293 1.293a1 1 0 101.414 1.414l3-3a1 1 0 00.217-1.09zM45.092 4.36a1 1 0 00.215.323L48.3 7.69a1 1 0 001.418-1.41l-1.29-1.3 4.015.01A6.579 6.579 0 0159 11.583l-.018 5.017-1.289-1.3a1 1 0 00-1.418 1.41l2.991 3.007a1 1 0 00.706.3.957.957 0 00.672-.269c.01-.009.023-.012.033-.022l3.007-2.991a1 1 0 10-1.41-1.418l-1.3 1.29.026-5.018a8.583 8.583 0 00-8.549-8.595l-4.014-.01 1.3-1.289A1 1 0 0048.319.276l-3.008 2.993a1 1 0 00-.218 1.091zM9.586 6.828L11 5.414l1.414 1.414 1.414-1.414L12.414 4l1.414-1.414-1.414-1.414L11 2.586 9.586 1.172 8.172 2.586 9.586 4 8.172 5.414l1.414 1.414zm18.828 45.344L27 53.586l-1.414-1.414-1.414 1.414L25.586 55l-1.414 1.414 1.414 1.414L27 56.414l1.414 1.414 1.414-1.414L28.414 55l1.414-1.414-1.414-1.414zM50 15a1 1 0 000 2h3a1 1 0 000-2zM38 59h-3a1 1 0 000 2h3a1 1 0 000-2zm17 0h-3a1 1 0 000 2h3a1 1 0 000-2zM27 5h3a1 1 0 000-2h-3a1 1 0 000 2z"/><circle cx="23.5" cy="22.5" r=".5" fill="#006360"/><circle cx="35.5" cy="22.5" r=".5" fill="#006360"/><circle cx="11.5" cy="22.5" r=".5" fill="#006360"/><circle cx="46.5" cy="38.5" r=".5" fill="#006360"/><circle cx="37.5" cy="38.5" r=".5" fill="#006360"/><path fill="#006360" d="M55 29H37a9.01 9.01 0 00-9 9v2a9.01 9.01 0 009 9h12.54l5.7 6.65a1 1 0 001.749-.792l-.847-5.931A9.014 9.014 0 0064 40v-2a9.01 9.01 0 00-9-9zM37.5 41a2.5 2.5 0 112.5-2.5 2.5 2.5 0 01-2.5 2.5zm9 0a2.5 2.5 0 112.5-2.5 2.5 2.5 0 01-2.5 2.5zm9 0a2.5 2.5 0 112.5-2.5 2.5 2.5 0 01-2.5 2.5z"/><circle cx="55.5" cy="38.5" r=".5" fill="#006360"/><path fill="#006360" d="M9 37h7.3l-4.17 7.51a1 1 0 00.21 1.24.991.991 0 00.66.25 1.028 1.028 0 00.6-.2L25.33 37h.72A11 11 0 0137 27h9a1 1 0 001-1v-8a9.014 9.014 0 00-9-9H9a9.014 9.014 0 00-9 9v10a9.014 9.014 0 009 9zm26.5-17a2.5 2.5 0 11-2.5 2.5 2.5 2.5 0 012.5-2.5zM26 22.5a2.5 2.5 0 11-2.5-2.5 2.5 2.5 0 012.5 2.5zM20 13h2v2h-2zm-3 0h2v2h-2zm-8 0h6v2H9zm2.5 7A2.5 2.5 0 119 22.5a2.5 2.5 0 012.5-2.5z"/></svg>