<svg xmlns="http://www.w3.org/2000/svg" viewBox="0 0 32 32" width="50" height="50"><path fill="#006360" d="M15.979 3.002a.5.5 0 00-.243.072L1.242 12.07a.5.5 0 00.264.924H3v15.504a.5.5 0 00.5.5h3a.5.5 0 00.5-.5V14.994h18v13.504a.5.5 0 00.5.5h3a.5.5 0 00.5-.5V12.994h1.494a.5.5 0 00.264-.924L16.264 3.074a.5.5 0 00-.285-.072zM16 4.09l12.738 7.906H28.5a.5.5 0 00-.5.5V28h-2V14.496a.5.5 0 00-.5-.5h-19a.5.5 0 00-.5.5V28H4V12.496a.5.5 0 00-.5-.5h-.238L16 4.09zM12.95 8A.5.5 0 0013 9h6a.5.5 0 100-1h-6a.5.5 0 00-.05 0zm-2 2a.5.5 0 00.05 1h10a.5.5 0 100-1H11a.5.5 0 00-.05 0zm5.542 6.994a.5.5 0 00-.074.006H14.5a.5.5 0 00-.5.5v4.064l-2.227-.96a.5.5 0 00-.294-.075.5.5 0 00-.233.067l-2.844 1.226a.5.5 0 00-.265.153.5.5 0 00-.055.066.5.5 0 00-.006.01.5.5 0 00-.074.347v3.76a.5.5 0 00.006.13.5.5 0 00.004.013.5.5 0 00.002.015.5.5 0 00.007.03.5.5 0 00.004.01.5.5 0 00.014.039.5.5 0 00.004.007.5.5 0 00.018.04.5.5 0 00.01.015.5.5 0 00.29.229l2.895 1.25a.5.5 0 00.012.005.5.5 0 00.074.032.5.5 0 00.213.021.5.5 0 00.002 0 .5.5 0 00.035-.006.5.5 0 00.015-.002.5.5 0 00.034-.007.5.5 0 00.013-.004.5.5 0 00.047-.02.5.5 0 00.045-.021.5.5 0 00.004-.002L14 26.96v.539a.5.5 0 00.5.5h6a.5.5 0 00.5-.5v-10a.5.5 0 00-.5-.5h-1.922a.5.5 0 00-.086-.006.5.5 0 00-.074.006h-1.84a.5.5 0 00-.086-.006zM15 18h1v1.406a.5.5 0 00.557.588.5.5 0 00.043-.008.5.5 0 00.007-.002.5.5 0 00.086-.029.5.5 0 00.008-.002.5.5 0 00.016-.008l.03-.013a.5.5 0 00.007-.004l.738-.371.778.388a.5.5 0 00.287.05.5.5 0 00.052-.01.5.5 0 00.016-.005.5.5 0 00.03-.007.5.5 0 00.003-.002.5.5 0 00.088-.04.5.5 0 00.002-.001.5.5 0 00.041-.026.5.5 0 00.002-.002.5.5 0 00.04-.03.5.5 0 00.032-.032.5.5 0 00.137-.35V18h1v4h-1.383a.5.5 0 00-.125-.014.5.5 0 00-.113.014h-1.762a.5.5 0 00-.125-.014.5.5 0 00-.113.014H15v-4zm2 0h1v.691l-.283-.14a.5.5 0 00-.242-.053.5.5 0 00-.205.053l-.27.135V18zm-5.5 3.576l1.734.748-1.734.748-.707-.304-1.03-.444 1.737-.748zM15 23h1v1.406a.5.5 0 00.408.586.5.5 0 00.041.006.5.5 0 00.059.002.5.5 0 00.26-.078l.724-.361.778.386a.5.5 0 00.093.035.5.5 0 00.045.01.5.5 0 00.1.008.5.5 0 00.004 0 .5.5 0 00.004 0 .5.5 0 00.484-.506V23h1v4h-5v-.762a.5.5 0 000-.05V23zm2 0h1v.695l-.283-.142a.5.5 0 00-.242-.051.5.5 0 00-.205.05l-.27.136V23zm-7.998.084l.303.13 1.091.472.604.26v2.79l-1.998-.863v-2.789zm4.996 0v2.789L12 26.736v-2.79l1.998-.862z"/></svg>