<svg xmlns="http://www.w3.org/2000/svg" viewBox="0 0 100 100" width="100" height="100"><path fill="#006360" d="M49.701 40.913a10.246 10.246 0 001.557-.573c.487-.229.895-.498 1.215-.809.521-.505.609-.881.254-1.126-.353-.246-1.159-.463-2.424-.652l-3.882 3.685a17.53 17.53 0 001.587-.164 13.571 13.571 0 001.693-.361zm1.629-6.169l3.326-3.112a10.62 10.62 0 00-2.728.456 8.08 8.08 0 00-1.296.513 4.43 4.43 0 00-1.027.698c-.451.416-.539.73-.265.948.281.215.943.382 1.99.497z"/><path fill="#006360" d="M75.028 49.957c.348 0 .679-.138.925-.382l23.665-23.077a1.304 1.304 0 00-.923-2.229h-72.69c-.315 0-.619.113-.857.32L.589 47.666a1.305 1.305 0 00.858 2.291h73.581zM37.502 38.996l5.334-.042c-.807.717-1.043 1.281-.714 1.693.333.415 1.015.679 2.053.792l4.264-3.989a6.866 6.866 0 00-.415-.079 12.446 12.446 0 00-.605-.078c-.79-.114-1.547-.25-2.264-.408-.716-.157-1.276-.37-1.679-.642-.407-.268-.591-.607-.554-1.016.04-.408.403-.923 1.093-1.543.704-.633 1.565-1.198 2.589-1.696 1.021-.5 2.109-.927 3.267-1.283a29.396 29.396 0 013.591-.864 33.531 33.531 0 013.584-.445l1.565-1.466 2.194-.087-1.561 1.475c1.043.026 1.957.115 2.739.268.786.156 1.376.387 1.775.694.403.309.583.705.548 1.189-.035.485-.361 1.066-.984 1.747l-5.31.125c.517-.517.663-.948.445-1.292-.221-.343-.749-.502-1.595-.478l-3.596 3.398c.26.032.521.064.794.096.272.033.551.073.847.118 1.581.224 2.668.521 3.273.887.604.37.929.762.977 1.174.049.414-.093.83-.432 1.25-.342.42-.678.793-1.01 1.123-.295.288-.801.653-1.527 1.093-.719.44-1.656.871-2.803 1.29-1.15.416-2.499.786-4.046 1.105-1.551.318-3.312.505-5.276.561l-1.727 1.631-2.263-.021 1.733-1.622c-2.734-.116-4.481-.559-5.24-1.328-.754-.761-.441-1.868.936-3.33z"/><path fill="#006360" d="M76.558 54.748H.45v5.226h77.191c.69 0 1.355-.275 1.846-.766L100 38.884v-7.58L76.558 54.748z"/><path fill="#006360" d="M.45 64.761v5.226h79.804c.691 0 1.356-.276 1.846-.766L100 51.398v-7.467l-20.826 20.83H.45z"/></svg>