<svg xmlns="http://www.w3.org/2000/svg" viewBox="0 0 48 48" width="48" height="48"><g fill="none" stroke="currentColor" stroke-width="2" stroke-linecap="round" stroke-linejoin="round" stroke-miterlimit="10"><path d="M27.692 4.442c0 1.9-3.691 6.467-3.691 6.467s-3.693-4.566-3.693-6.467C20.308 2.541 21.961 1 24.001 1c2.038 0 3.691 1.541 3.691 3.442z"/><path d="M21.349 7.104L17.304 9.45l2.021 5.106s1.308 4.706-2.021 7.71c-3.33 3.005-5.908 15.521-5.585 22.329 0 0 1.579 2.404 12.282 2.404"/><path d="M26.651 7.104l4.045 2.347-2.021 5.106s-1.308 4.706 2.021 7.71c3.329 3.005 5.908 15.521 5.585 22.329 0 0-1.578 2.404-12.282 2.404"/></g></svg></path><path fill="none" stroke="currentColor" stroke-width="2" stroke-linecap="round" stroke-linejoin="round" stroke-miterlimit="10" d="    M26.651,7.104l4.045,2.347l-2.021,5.106c0,0-1.308,4.706,2.021,7.71c3.329,3.005,5.908,15.521,5.585,22.329    c0,0-1.578,2.404-12.282,2.404"></path></g></g></svg>
