<svg xmlns="http://www.w3.org/2000/svg" viewBox="0 0 52 52" width="48" height="48"><g ><g><path d="M20,49.9950943h-8c-1.6541996,0-3-1.3456993-3-3v-18h14v18C23,48.649395,21.6543007,49.9950943,20,49.9950943z     M11,30.9950943v16c0,0.5517998,0.4483004,1,1,1h8c0.5517998,0,1-0.4482002,1-1v-16H11z" fill="currentColor"></path></g><g><path d="M40,49.9950943h-8c-1.6541996,0-3-1.3456993-3-3v-18h14v18C43,48.649395,41.6543007,49.9950943,40,49.9950943z     M31,30.9950943v16c0,0.5517998,0.4482994,1,1,1h8c0.5517998,0,1-0.4482002,1-1v-16H31z" fill="currentColor"></path></g><g><path d="M21,30.9950943H11v-15.000001h10V30.9950943z M13,28.9950943h6v-11h-6V28.9950943z" fill="currentColor"></path></g><g><path d="M20,17.9950943h-8V6.6181936c0-0.7246003,0.3604002-1.3975,0.9629002-1.8008003l3.6728992-2.4481997    c0.6641006-0.4434,1.5146008-0.4854001,2.2217159-0.1075001C19.5625153,2.6386936,20,3.3700936,20,4.1698933V17.9950943z     M14,15.9950933h4V4.1698933c0-0.0243998,0-0.0985999-0.0869007-0.1444998    c-0.0887985-0.0478001-0.1483994-0.0057998-0.1678982,0.0078001l-3.6719007,2.4482999    C14.0274,6.5116935,14,6.5634937,14,6.6181936V15.9950933z" fill="currentColor"></path></g></g></svg>
