<svg xmlns="http://www.w3.org/2000/svg" viewBox="0 0 52 52" width="48" height="48"><path d="M20 49.995h-8c-1.654 0-3-1.346-3-3v-18h14v18c0 1.654-1.346 3-3 3zm-9-19v16a1 1 0 001 1h8a1 1 0 001-1v-16H11zm29 19h-8c-1.654 0-3-1.346-3-3v-18h14v18c0 1.654-1.346 3-3 3zm-9-19v16a1 1 0 001 1h8a1 1 0 001-1v-16H31z" fill="currentColor"/><path d="M21 30.995H11v-15h10v15zm-8-2h6v-11h-6v11z" fill="currentColor"/><path d="M20 17.995h-8V6.618c0-.724.36-1.397.963-1.8l3.673-2.449a2.16 2.16 0 012.222-.107A2.16 2.16 0 0120 4.17v13.825zm-6-2h4V4.17c0-.025 0-.099-.087-.145-.089-.047-.148-.005-.168.008l-3.672 2.448a.164.164 0 00-.073.137v9.377z" fill="currentColor"/></svg> fill="currentColor"></path></g><g><path d="M20,17.9950943h-8V6.6181936c0-0.7246003,0.3604002-1.3975,0.9629002-1.8008003l3.6728992-2.4481997    c0.6641006-0.4434,1.5146008-0.4854001,2.2217159-0.1075001C19.5625153,2.6386936,20,3.3700936,20,4.1698933V17.9950943z     M14,15.9950933h4V4.1698933c0-0.0243998,0-0.0985999-0.0869007-0.1444998    c-0.0887985-0.0478001-0.1483994-0.0057998-0.1678982,0.0078001l-3.6719007,2.4482999    C14.0274,6.5116935,14,6.5634937,14,6.6181936V15.9950933z" fill="currentColor"></path></g></g></svg>
