<svg xmlns="http://www.w3.org/2000/svg" xmlns:xlink="http://www.w3.org/1999/xlink"><symbol id="arrow-short-down" viewBox="0 0 8 5">
  <path d="M7.76898 1.39382L4.57688 4.74717C4.2636 5.08458 3.73595 5.08393 3.42292 4.74729L0.231162 1.39397C-0.0811663 1.07395 -0.0721598 0.563131 0.228867 0.246866C0.544816 -0.0858524 1.06475 -0.0768973 1.3783 0.241394L1.38393 0.247116L4 2.78645L6.62119 0.247241C6.93422 -0.0821515 7.45835 -0.081747 7.77113 0.246867C8.07242 0.563409 8.08085 1.07376 7.76898 1.39382Z"/>
</symbol><symbol id="burger" viewBox="0 0 26 18">
  <rect fill="#373737" width="26" height="2" rx="1"/>
  <rect fill="#373737" y="8" width="26" height="2" rx="1"/>
  <rect fill="#373737" y="16" width="26" height="2" rx="1"/>
</symbol><symbol id="cross" viewBox="0 0 16 16">
  <path fill="#373737" d="M15.7331 1.55576C16.089 1.19986 16.089 0.622828 15.7331 0.266927C15.3772 -0.0889751 14.8001 -0.0889757 14.4442 0.266926L7.9999 6.71127L1.55576 0.267132C1.19986 -0.0887695 0.622828 -0.0887694 0.266926 0.267132C-0.0889751 0.623034 -0.0889757 1.20006 0.266926 1.55597L6.71106 8.0001L0.267062 14.4441C-0.0888393 14.8 -0.0888392 15.377 0.267062 15.7329C0.622964 16.0888 1.19999 16.0888 1.5559 15.7329L7.9999 9.28894L14.4441 15.7331C14.8 16.089 15.377 16.089 15.7329 15.7331C16.0888 15.3772 16.0888 14.8002 15.7329 14.4443L9.28873 8.0001L15.7331 1.55576Z"/>
</symbol><symbol id="icon-fb" viewBox="0 0 12 22"><path fill="#FFF" d="M12 4V0H8a4 4 0 0 0-4 4v4H0v4h4v10h4V12h4V8H8V4h4z"/></symbol><symbol id="icon-insta" viewBox="0 0 21 21"><path fill="#FFF" d="M18 0H3C1.35 0 0 1.35 0 3v15c0 1.65 1.35 3 3 3h15c1.65 0 3-1.35 3-3V3c0-1.65-1.35-3-3-3zm-7.5 7c1.93 0 3.5 1.57 3.5 3.5S12.43 14 10.5 14 7 12.43 7 10.5 8.57 7 10.5 7zM18 18H3V9h1.181A6.504 6.504 0 0 0 4 10.5a6.5 6.5 0 1 0 13 0 6.45 6.45 0 0 0-.181-1.5H18v9zm0-11h-4V3h4v4z"/></symbol><symbol id="icon-right" viewBox="0 0 22 40"><path fill="#FFF" d="M2.098-.035L.009 2.064l17.789 17.883L-.048 37.886l2.089 2.099 19.935-20.038z"/></symbol><symbol id="icon-search" viewBox="0 0 17 17"><path d="M17 15.586l-3.542-3.542A7.465 7.465 0 0 0 15 7.5 7.5 7.5 0 1 0 7.5 15c1.71 0 3.282-.579 4.544-1.542L15.586 17 17 15.586zM2 7.5C2 4.467 4.467 2 7.5 2 10.532 2 13 4.467 13 7.5c0 3.032-2.468 5.5-5.5 5.5A5.506 5.506 0 0 1 2 7.5z"/></symbol><symbol id="icon-vk" viewBox="0 0 26 15"><path fill="#FFF" d="M16.138 11.51c.956-.309 2.18 2.04 3.483 2.939.978.681 1.727.534 1.727.534l3.473-.05s1.815-.112.957-1.554c-.071-.12-.503-1.069-2.585-3.022-2.177-2.043-1.882-1.712.739-5.244 1.597-2.153 2.236-3.468 2.036-4.028-.192-.539-1.365-.399-1.365-.399L20.69.713c-.381.001-.704.119-.851.515-.003.004-.621 1.666-1.445 3.079-1.741 2.989-2.436 3.148-2.724 2.961-.661-.433-.494-1.737-.494-2.664 0-2.897.432-4.105-.846-4.417-.427-.104-.739-.172-1.828-.182-1.392-.021-2.574 0-3.244.329-.445.223-.786.712-.579.74.26.035.843.16 1.155.586.401.552.389 1.789.389 1.789s.229 3.411-.54 3.834c-.528.29-1.25-.302-2.803-3.016-.793-1.388-1.392-2.922-1.392-2.922s-.116-.285-.326-.441c-.25-.185-.6-.244-.6-.244L.848.684S.29.7.085.946c-.182.218-.015.668-.015.668s2.909 6.881 6.203 10.347c3.02 3.182 6.452 2.971 6.452 2.971h1.555s.469-.054.709-.312c.224-.24.214-.691.214-.691s-.031-2.109.935-2.419z"/></symbol><symbol id="warning" viewBox="0 0 5 15">
  <path d="M2.49998 11.9375C3.07422 11.9375 3.55221 11.4976 3.60058 10.9253L4.34715 2.0088C4.39061 1.49167 4.21527 0.98045 3.86425 0.598629C3.51366 0.217299 3.01856 0 2.49998 0C1.98141 0 1.48631 0.217299 1.13569 0.598629C0.78461 0.98045 0.609361 1.49167 0.652821 2.0088L1.39939 10.9253C1.44775 11.4976 1.92575 11.9375 2.49998 11.9375Z"/>
  <path d="M2.49996 12.5938C1.83537 12.5938 1.29681 13.1323 1.29681 13.7969C1.29681 14.4615 1.83537 15 2.49996 15C3.16454 15 3.7031 14.4615 3.7031 13.7969C3.7031 13.1323 3.16454 12.5938 2.49996 12.5938Z"/>
</symbol></svg>