<svg xmlns="http://www.w3.org/2000/svg" xmlns:xlink="http://www.w3.org/1999/xlink"><defs>
    <clipPath id="by-a">
      <path fill-opacity=".7" d="M0 0h682.6v512H0z"/>
    </clipPath>
  </defs><symbol id="arrow-short-down" viewBox="0 0 8 5">
  <path d="M7.76898 1.39382L4.57688 4.74717C4.2636 5.08458 3.73595 5.08393 3.42292 4.74729L0.231162 1.39397C-0.0811663 1.07395 -0.0721598 0.563131 0.228867 0.246866C0.544816 -0.0858524 1.06475 -0.0768973 1.3783 0.241394L1.38393 0.247116L4 2.78645L6.62119 0.247241C6.93422 -0.0821515 7.45835 -0.081747 7.77113 0.246867C8.07242 0.563409 8.08085 1.07376 7.76898 1.39382Z"/>
</symbol><symbol id="big-arrow" viewBox="0 0 21 41"><path d="M20.3 40.8L0 20.5 20.3.2l.7.7L1.3 20.5 21 40.1z"/></symbol><symbol id="burger" viewBox="0 0 26 18">
  <rect fill="#373737" width="26" height="2" rx="1"/>
  <rect fill="#373737" y="8" width="26" height="2" rx="1"/>
  <rect fill="#373737" y="16" width="26" height="2" rx="1"/>
</symbol><symbol id="by" viewBox="0 0 640 480">
  
  <g fill-rule="evenodd" clip-path="url(#by-a)" transform="scale(.9376 .9375)">
    <path fill="#b20000" d="M0 0h1024v340.1H0z"/>
    <path fill="#429f00" d="M0 340.1h1024V512H0z"/>
    <path fill="#fff" d="M0 0h113.4v512H0z"/>
    <g fill="#b20000" stroke-width="1pt">
      <path d="M5.4 8.7h5.4v8.7H5.4zm16.2 0h16.2v8.7H21.6zM27 0h5.4v8.7H27zm27 0h5.4v8.7H54zm21.6 8.7h16.2v8.7H75.6zM81 0h5.4v8.7H81zM16.2 17.4H27V26H16.2zm16.2 0h10.8V26H32.4zm37.8 0H81V26H70.2zm16.2 0h10.8V26H86.4zM10.8 26h10.8v8.7H10.8zm27 0h10.8v8.7H37.8zm27 0h10.8v8.7H64.8zm27 0h10.8v8.7H91.8zm10.8-17.3h5.4v8.7h-5.4zm-97.2 26h10.8v8.7H5.4zm37.8 0H54v8.7H43.2zm54 0H108v8.7H97.2zm-86.4 26h10.8v8.7H10.8zm5.4 8.7H27v8.7H16.2zm21.6-8.6h10.8v8.6H37.8zm-5.4 8.6h10.8v8.7H32.4zm-10.8 8.7h16.2v8.7H21.6z"/>
      <path d="M27 86.8h5.4v8.7H27zm37.8-26h10.8v8.6H64.8zm5.4 8.6H81v8.7H70.2zm21.6-8.6h10.8v8.6H91.8zm-5.4 8.6h10.8v8.7H86.4zm-10.8 8.7h16.2v8.7H75.6zm5.4 8.7h5.4v8.7H81zM54 78h5.4v8.7H54zM0 78h5.4v8.7H0zm108 0h5.4v8.7H108zm-81 43.4h5.4v8.7H27zm-5.4 8.8h16.2v8.6H21.6zm-5.4 8.6h27v8.7h-27zM81 121.5h5.4v8.7H81zm-5.4 8.7h16.2v8.6H75.6zm-5.4 8.6h27v8.7h-27zm5.4 43.4h27v8.7h-27zm-10.8-34.7h37.8v8.7H64.8zm-54 0h37.8v8.7H10.8zm5.4 43.4h16.2v8.7H16.2zm-5.4-8.7h27v8.7h-27zM86.4 165h27v8.7h-27zM81 191h16.2v8.7H81z"/>
      <path d="M21.6 199.6H27v8.7h-5.4zm64.8 0h5.4v8.7h-5.4zM0 164.9h27v8.7H0zm48.6 17.3h16.2v8.7H48.6zM54 191h5.4v8.7H54zm-16.2-26h37.8v8.7H37.8zM59.4 34.7h10.8v8.7H59.4zm-10.8 8.7h16.2v8.7H48.6zm-5.4 8.7H54v8.6H43.2zm16.2 0h10.8v8.6H59.4zM0 43.4h10.8v8.7H0zm5.4 8.7h10.8v8.6H5.4zm97.2-8.7h10.8V52h-10.8zM97.2 52H108v8.6H97.2zM0 130h5.4v8.7H0zm108 0h5.4v8.7H108zm-59.4 69.5h16.2v8.7H48.6zm-5.4 8.7H54v8.6H43.2zm16.2 0h10.8v8.6H59.4zm-21.6 8.6h10.8v8.7H37.8zm27 0h10.8v8.7H64.8zm-32.4 8.7h10.8v8.7H32.4zm37.8 0H81v8.7H70.2zM27 234.3h10.8v8.7H27zm48.6 0h10.8v8.7H75.6zM16.2 243h16.2v8.7H16.2zm64.8 0h16.2v8.7H81zm10.8-8.7h10.8v8.7H91.8zm5.4-8.7H108v8.7H97.2zm5.4-8.7h10.8v8.7h-10.8zm-91.8 17.4h10.8v8.7H10.8zm-5.4-8.7h10.8v8.7H5.4zM0 217h10.8v8.7H0zm21.6 34.8H27v8.6h-5.4zm64.8 0h5.4v8.6h-5.4zm-32.4-26h5.4v8.6H54zm-16.2 26h5.4v8.6h-5.4zm32.4 0h5.4v8.6h-5.4zm-16.2 0h5.4v8.6H54zm-54 0h5.4v8.6H0zm108 0h5.4v8.6H108zM54 130.2h5.4v8.6H54zM27 43.4h5.4v8.7H27zm54 0h5.4v8.7H81zm-32.4 60.7h16.2v8.7H48.6zm-10.8 8.7H54v8.7H37.8zm5.4 8.7h5.4v8.7h-5.4zm-10.8-17.4h10.8v8.7H32.4zm5.4-8.6H54v8.6H37.8zm5.4-8.7h5.4v8.7h-5.4zm16.2 8.7h16.2v8.6H59.4zm5.4-8.7h5.4v8.7h-5.4zm5.4 17.3H81v8.7H70.2zm-10.8 8.7h16.2v8.7H59.4zm5.4 8.7h5.4v8.7h-5.4zm21.6-17.4h10.8v8.7H86.4zm5.4-8.6H108v8.6H91.8zm10.8 8.6h10.8v8.7h-10.8zm-10.8 8.7H108v8.7H91.8zm5.4 8.7h5.4v8.7h-5.4zm0-34.7h5.4v8.7h-5.4zM0 104h10.8v8.7H0zm5.4-8.6h16.2v8.6H5.4zm10.8 8.6H27v8.7H16.2zm-10.8 8.7h16.2v8.7H5.4z"/>
      <path d="M10.8 121.5h5.4v8.7h-5.4zm0-34.7h5.4v8.7h-5.4zm-5.4 69.4H27v8.7H5.4zm27 0H54v8.7H32.4zm27 0H81v8.7H59.4zm27 0H108v8.7H86.4zm-43.2 17.4h27v8.6h-27zm-37.8 0h27v8.6h-27zm75.6 0h27v8.6H81zm27 34.7h5.4v8.6H108zm-108 0h5.4v8.6H0zm5.4 295h5.4v-8.6H5.4zm16.2 0h16.2v-8.6H21.6zM27 512h5.4v-8.7H27zm27 0h5.4v-8.7H54zm21.6-8.7h16.2v-8.7H75.6zM81 512h5.4v-8.7H81zm-64.8-17.4H27V486H16.2zm16.2 0h10.8V486H32.4zm37.8 0H81V486H70.2zm16.2 0h10.8V486H86.4zM37.8 486h10.8v-8.7H37.8zm27 0h10.8v-8.7H64.8zm27 0h10.8v-8.7H91.8zm10.8 17.3h5.4v-8.7h-5.4zm-97.2-26h10.8v-8.7H5.4zm37.8 0H54v-8.7H43.2zm54 0H108v-8.7H97.2zm-86.4-26h10.8v-8.7H10.8zm5.4-8.7H27v-8.7H16.2zm21.6 8.7h10.8v-8.7H37.8zm-5.4-8.7h10.8v-8.7H32.4zm-10.8-8.7h16.2v-8.7H21.6zm5.4-8.7h5.4v-8.6H27zm37.8 26h10.8v-8.6H64.8zm5.4-8.6H81v-8.7H70.2zm21.6 8.7h10.8v-8.7H91.8zm-5.4-8.7h10.8v-8.7H86.4zm-10.8-8.7h16.2v-8.7H75.6zm5.4-8.7h5.4v-8.6H81zM54 434h5.4v-8.7H54zm-54 0h5.4v-8.7H0zm108 0h5.4v-8.7H108zm-81-43.4h5.4v-8.7H27zm-5.4-8.8h16.2v-8.6H21.6zm-5.4-8.6h27v-8.7h-27zM81 390.5h5.4v-8.7H81z"/>
      <path d="M75.6 381.8h16.2v-8.6H75.6zm-5.4-8.6h27v-8.7h-27zm5.4-43.4h27V321h-27zm-10.8 34.7h37.8v-8.7H64.8zm-54 0h37.8v-8.7H10.8zm5.4-43.4h16.2v-8.7H16.2zm-5.4 8.7h27V321h-27zM86.4 347h27v-8.7h-27zM81 321h16.2v-8.7H81zM0 347h27v-8.7H0zm48.6-17.3h16.2V321H48.6zM54 321h5.4v-8.7H54zm-16.2 26h37.8v-8.7H37.8zm21.6 130.2h10.8v-8.7H59.4zm-10.8-8.7h16.2V460H48.6zm-5.4-8.7H54v-8.7H43.2zm16.2 0h10.8v-8.7H59.4zM0 468.6h10.8V460H0zm5.4-8.7h10.8v-8.6H5.4zm97.2 8.7h10.8V460h-10.8zm-5.4-8.7H108v-8.6H97.2zM0 382h5.4v-8.7H0zm108 0h5.4v-8.7H108zm-64.8-78.2H54v-8.6H43.2zm16.2 0h10.8v-8.6H59.4zm-21.6-8.6h10.8v-8.7H37.8zm27 0h10.8v-8.7H64.8zm-32.4-8.7h10.8v-8.7H32.4zm37.8 0H81v-8.7H70.2zM27 277.7h10.8V269H27zm48.6 0h10.8V269H75.6zM16.2 269h16.2v-8.7H16.2zm64.8 0h16.2v-8.7H81zm10.8 8.7h10.8V269H91.8zm5.4 8.7H108v-8.7H97.2zm5.4 8.7h10.8v-8.7h-10.8zm-91.8-17.4h10.8V269H10.8zm-5.4 8.7h10.8v-8.7H5.4zM0 295h10.8v-8.7H0zm21.6-34.8H27v-8.6h-5.4zm32.4 26h5.4v-8.6H54zm0 95.5h5.4v-8.6H54zm-27 86.8h5.4V460H27zm54 0h5.4V460H81zM48.6 408h16.2v-8.7H48.6zm-10.8-8.7H54v-8.7H37.8zm5.4-8.7h5.4v-8.7h-5.4zM32.4 408h10.8v-8.7H32.4zm5.4 8.5H54V408H37.8zm5.4 8.7h5.4v-8.6h-5.4zm16.2-8.7h16.2V408H59.4zm5.4 8.7h5.4v-8.6h-5.4zm5.4-17.3H81v-8.7H70.2zm-10.8-8.7h16.2v-8.7H59.4zm5.4-8.7h5.4v-8.7h-5.4zM86.4 408h10.8v-8.7H86.4zm5.4 8.5H108V408H91.8zm10.8-8.6h10.8v-8.7h-10.8zm-10.8-8.7H108v-8.7H91.8zm5.4-8.7h5.4v-8.7h-5.4zm0 34.7h5.4v-8.6h-5.4zM0 408h10.8v-8.7H0zm5.4 8.5h16.2V408H5.4z"/>
      <path d="M16.2 407.9H27v-8.7H16.2zm-10.8-8.7h16.2v-8.7H5.4zm5.4-8.7h5.4v-8.7h-5.4zm0 34.7h5.4v-8.6h-5.4zm-5.4-69.4H27v-8.7H5.4zm27 0H54v-8.7H32.4zm27 0H81v-8.7H59.4zm27 0H108v-8.7H86.4zm-43.2-17.4h27v-8.6h-27zm-37.8 0h27v-8.6h-27zm75.6 0h27v-8.6H81zm27-34.6h5.4V295H108zm-108 0h5.4V295H0zm48.6-43.5H54v8.7h-5.4zm10.8 0h5.4v8.7h-5.4zm0-17.3h5.4v8.7h-5.4zm-10.8 0H54v8.7h-5.4zM10.8 477.3h10.8v8.7H10.8zm75.6-164.9h5.4v-8.7h-5.4zm-64.8 0H27v-8.7h-5.4zm27-8.7h16.2v8.7H48.6z"/>
    </g>
  </g>
</symbol><symbol id="cross" viewBox="0 0 16 16">
  <path fill="#373737" d="M15.7331 1.55576C16.089 1.19986 16.089 0.622828 15.7331 0.266927C15.3772 -0.0889751 14.8001 -0.0889757 14.4442 0.266926L7.9999 6.71127L1.55576 0.267132C1.19986 -0.0887695 0.622828 -0.0887694 0.266926 0.267132C-0.0889751 0.623034 -0.0889757 1.20006 0.266926 1.55597L6.71106 8.0001L0.267062 14.4441C-0.0888393 14.8 -0.0888392 15.377 0.267062 15.7329C0.622964 16.0888 1.19999 16.0888 1.5559 15.7329L7.9999 9.28894L14.4441 15.7331C14.8 16.089 15.377 16.089 15.7329 15.7331C16.0888 15.3772 16.0888 14.8002 15.7329 14.4443L9.28873 8.0001L15.7331 1.55576Z"/>
</symbol><symbol id="house" viewBox="-3 -3 22 22"><path d="M3 12H2v1h1v-1zm11 0h-1v1h1v-1zM3 9H2v1h1V9zm11-3h-1v1h1V6zm-2-3V0H4v3H0v13h16V3h-4zM4 15H1V4h3v11zm5 0H7v-2h2v2zm2-12v12h-1v-3H6v3H5V1h6v2zm4 12h-3V4h3v11zM3 6H2v1h1V6zm11 3h-1v1h1V9zm-4 0H6v1h4V9zm0-3H6v1h4V6zm0-3H6v1h4V3z"/></symbol><symbol id="icon-fb" viewBox="0 0 12 22"><path fill="#FFF" d="M12 4V0H8a4 4 0 0 0-4 4v4H0v4h4v10h4V12h4V8H8V4h4z"/></symbol><symbol id="icon-insta" viewBox="0 0 21 21"><path fill="#FFF" d="M18 0H3C1.35 0 0 1.35 0 3v15c0 1.65 1.35 3 3 3h15c1.65 0 3-1.35 3-3V3c0-1.65-1.35-3-3-3zm-7.5 7c1.93 0 3.5 1.57 3.5 3.5S12.43 14 10.5 14 7 12.43 7 10.5 8.57 7 10.5 7zM18 18H3V9h1.181A6.504 6.504 0 0 0 4 10.5a6.5 6.5 0 1 0 13 0 6.45 6.45 0 0 0-.181-1.5H18v9zm0-11h-4V3h4v4z"/></symbol><symbol id="icon-phone" viewBox="-3 -3 22 22"><path d="M15.76 2.34c-.017-.024-1.694-2.373-2.667-2.342-2.73.086-5.94 2.73-8.15 4.933C2.73 7.133.074 10.33-.013 13.06v.022c0 .957 2.328 2.638 2.35 2.653.634.44 1.33.28 1.613-.12.173-.245 1.958-2.918 2.16-3.245a.97.97 0 0 0 .13-.507c0-.244-.072-.515-.212-.78a77.645 77.645 0 0 0-.8-1.416C5.464 9.33 6.07 8.542 7.32 7.3c1.24-1.236 2.04-1.847 2.377-2.083.383.218 1.165.66 1.422.795.484.255.97.284 1.296.077a254.71 254.71 0 0 0 3.226-2.148c.24-.173.368-.48.368-.815 0-.265-.08-.544-.25-.788zm-.724.827c-.41.28-2.7 1.787-3.128 2.06a.74.74 0 0 1-.323-.1c-.174-.09-.682-.374-1.392-.776l-.55-.313-.522.363c-.387.27-1.228.918-2.51 2.193-1.286 1.28-1.932 2.116-2.203 2.5l-.365.518.316.552a74.3 74.3 0 0 1 .783 1.387c.09.167.097.282.097.313v.013c-.242.382-1.795 2.712-2.078 3.124-.04.006-.128 0-.237-.075-.88-.633-1.8-1.532-1.93-1.884.087-1.87 1.74-4.497 4.658-7.404 2.92-2.907 5.554-4.552 7.427-4.64.354.127 1.262 1.043 1.893 1.912a.39.39 0 0 1 .07.218c0 .017-.002.03-.004.04z"/></symbol><symbol id="icon-right" viewBox="0 0 22 40"><path fill="#FFF" d="M2.098-.035L.009 2.064l17.789 17.883L-.048 37.886l2.089 2.099 19.935-20.038z"/></symbol><symbol id="icon-search" viewBox="0 0 17 17"><path d="M17 15.586l-3.542-3.542A7.465 7.465 0 0 0 15 7.5 7.5 7.5 0 1 0 7.5 15c1.71 0 3.282-.579 4.544-1.542L15.586 17 17 15.586zM2 7.5C2 4.467 4.467 2 7.5 2 10.532 2 13 4.467 13 7.5c0 3.032-2.468 5.5-5.5 5.5A5.506 5.506 0 0 1 2 7.5z"/></symbol><symbol id="icon-telegram" viewBox="0 0 19 16">
    <path d="M0.286995 7.44244C2.23075 6.35378 4.4005 5.44519 6.42781 4.53195C9.91556 3.03612 13.4172 1.56623 16.9541 0.19777C17.6422 -0.0354018 18.8788 -0.26336 19 0.773585C18.9336 2.24137 18.6605 3.70056 18.4732 5.15975C17.9978 8.36864 17.4481 11.5665 16.9123 14.7649C16.7276 15.8301 15.4151 16.3817 14.5753 15.7C12.557 14.3137 10.5232 12.9411 8.53063 11.5227C7.87786 10.8483 8.48324 9.87996 9.06604 9.3984C10.7284 7.73253 12.4913 6.31743 14.0668 4.56562C14.4917 3.52205 13.2361 4.40148 12.8219 4.671C10.5462 6.26559 8.32611 7.95753 5.92677 9.35895C4.70118 10.0449 3.27274 9.4587 2.04771 9.07591C0.949324 8.61351 -0.660218 8.14759 0.286856 7.44258L0.286995 7.44244Z"/>
</symbol><symbol id="icon-vk" viewBox="0 0 26 15"><path fill="#FFF" d="M16.138 11.51c.956-.309 2.18 2.04 3.483 2.939.978.681 1.727.534 1.727.534l3.473-.05s1.815-.112.957-1.554c-.071-.12-.503-1.069-2.585-3.022-2.177-2.043-1.882-1.712.739-5.244 1.597-2.153 2.236-3.468 2.036-4.028-.192-.539-1.365-.399-1.365-.399L20.69.713c-.381.001-.704.119-.851.515-.003.004-.621 1.666-1.445 3.079-1.741 2.989-2.436 3.148-2.724 2.961-.661-.433-.494-1.737-.494-2.664 0-2.897.432-4.105-.846-4.417-.427-.104-.739-.172-1.828-.182-1.392-.021-2.574 0-3.244.329-.445.223-.786.712-.579.74.26.035.843.16 1.155.586.401.552.389 1.789.389 1.789s.229 3.411-.54 3.834c-.528.29-1.25-.302-2.803-3.016-.793-1.388-1.392-2.922-1.392-2.922s-.116-.285-.326-.441c-.25-.185-.6-.244-.6-.244L.848.684S.29.7.085.946c-.182.218-.015.668-.015.668s2.909 6.881 6.203 10.347c3.02 3.182 6.452 2.971 6.452 2.971h1.555s.469-.054.709-.312c.224-.24.214-.691.214-.691s-.031-2.109.935-2.419z"/></symbol><symbol id="label" viewBox="-3 -3 22 22"><path d="M15.916.075S9.636-.623 6.844 2.17c-2.628 2.634-3.807 6.308-2.19 8.48L.005 15.303l.698.7 4.646-4.653c2.17 1.62 5.842.44 8.472-2.192.115-.115.2-.257.302-.385l.047.035.08-.198c.087-.117.19-.22.268-.342l-.118-.033.178-.446-1.453-.73 2.013-.67.29-.727h.15c.652-2.72.338-5.588.338-5.588zM5.316 6.23l.83.832.698-.698-1.088-1.09c.16-.293.33-.584.527-.87l1.26 1.26.697-.698-1.358-1.36c.21-.25.425-.5.66-.736C9.682.726 13.012.787 14.376.918l-9.02 9.03c-.645-.97-.583-2.323-.04-3.718zm9.43-.642L11.38 6.712l1.967 1.476c-.07.092-.138.186-.222.27-2.244 2.248-5.3 3.37-7.07 2.188l9.022-9.032c.08.83.125 2.394-.33 3.974z"/></symbol><symbol id="more" viewBox="0 0 18 4">
  <path transform="rotate(-90 2 2)" fill="currentcolor" fill-rule="evenodd" d="M4 2a2 2 0 1 1-4 0 2 2 0 0 1 4 0zm0 7a2 2 0 1 1-4 0 2 2 0 0 1 4 0zm-2 9a2 2 0 1 0 0-4 2 2 0 0 0 0 4z"/>
</symbol><symbol id="phone-black" viewBox="0 0 997 1280">
  <path d="M304.5 1.8c-2.7 1-23 12.2-45 24.8-22 12.7-50.6 29.1-63.5 36.4-30.1 17.1-35 21.9-38.2 37.4-2.3 10.6-1.5 12.4 27.3 61.5 48 82 146.4 245.3 150.5 250 5.4 5.9 13.2 10.6 21.3 12.7 11.3 2.8 11.7 2.7 65-27.9 26.2-15.1 55.3-31.8 64.8-37.1 23.6-13.4 29.8-20.4 32.5-37 2.1-12.9 1.2-15.1-21.1-52.1C393.6 97.6 342.7 13.9 340.1 10.8c-7.3-8.7-24.5-13.1-35.6-9zM119.3 136c-53 15.2-89.2 53.7-106.9 113.9-28.5 96.7-6.6 249 60.1 418.1 67.5 171 169.6 333.4 281 446.9 95.4 97.1 186.4 150.6 277.5 163.2 12.7 1.8 50.8 1.8 62.5.1 21.8-3.3 41.2-8.5 60.4-16.1 8.6-3.5 17.7-7.6 18.9-8.6.5-.4-87.2-153.1-97.5-169.5-10.5-16.8-31.1-50.4-63-103-17-27.9-14-25.7-29.3-21.9-12.8 3.1-39.4 3.4-54.5.5-33.1-6.1-71.1-25.1-105-52.3-13.9-11.1-39.7-36.3-52.7-51.3-19.7-22.8-39.7-50.6-56.3-78.5-10.1-17-15.1-27-21.8-44-16.8-42.6-27.2-81.9-32.3-122-2.5-19.8-2.3-54 .5-72.2 5.3-35.3 17.8-64.7 37.7-89 3-3.6 5.2-6.8 5-7.2-.2-.3-5.6-9.5-12-20.4-16.8-28.6-41.4-73.2-81.6-147.7-49.2-91.4-77.6-142-79.5-141.9-.5 0-5.6 1.3-11.2 2.9zM769 811.4c-1.9.8-23.7 13-48.5 27.3-24.7 14.3-53.3 30.6-63.5 36.3-19.9 11.3-26.8 16.9-30.8 25.1-5.1 10.5-4.8 21.5.7 31.3 70.1 124.4 167.9 292.7 173.4 298.4 1.8 1.8 6.1 4.8 9.7 6.5 5.9 2.9 7.3 3.2 16 3.2h9.6l15.9-9.2c8.8-5 38.5-22 66-37.7 27.5-15.8 51.2-29.9 52.8-31.4 4.1-3.8 7.6-9.5 9.8-16 2.2-6.3 2.6-19.9.7-25.3-.6-1.9-10-18.5-20.8-36.9-10.9-18.4-40.3-68.8-65.5-112-65.6-112.5-85.4-146-88.7-150.2-1.8-2.3-5.5-5-9.6-7-5.7-2.8-7.8-3.3-15.2-3.5-5.3-.2-9.8.3-12 1.1z"/>
</symbol><symbol id="phone" viewBox="0 0 60 60"><path d="M21.667 42.795C8.865 30.457 11.535 22.61 12.792 20.94l9.238 8.678c-1.24 1.316.054 3.098 1.5 4.784 2.07 2.41 4.44 4.53 6.484 6.1 3.096 2.367 4.702 3.404 5.89 2.15l9.006 8.475c-1.408 1.55-9.76 4.67-23.243-8.332zm26.407 5.113l-.045.007c.004 0-2.445 2.538-2.445 2.538l-9.017-8.496 2.425-2.55a1.437 1.437 0 0 1 1.987-.063c.003.007 7.128 6.607 7.128 6.607v.01c0 .505.516 1.366-.036 1.95zm-14.02-29.99l-6.918 3.746-.04.024a.94.94 0 0 1-.854-1.67l6.917-3.75a.93.93 0 0 1 1.27.375.94.94 0 0 1-.378 1.274zm-9.823.914a.956.956 0 0 1-.35.296.947.947 0 0 1-.96-.08.94.94 0 0 1-.21-1.31l4.576-6.398a.936.936 0 0 1 1.304-.218c.42.303.52.89.22 1.31l-4.58 6.4zm-3.776-2.622a.936.936 0 0 1-1.12.707.933.933 0 0 1-.71-1.117l1.727-7.676a.938.938 0 1 1 1.83.412l-1.726 7.674zm4.073 8.22c.927.5 1.386 1.363.927 1.947v.007l-2.616 2.538-9.445-8.685 2.34-2.55c.52-.545 1.254-.586 1.814-.058l6.98 6.792v.008z"/></symbol><symbol id="scroll-up-arrow" viewBox="0 0 24 24"><path d="M22 12l-20 12 5-12-5-12z"/></symbol><symbol id="tr" viewBox="0 0 640 480">
  <g fill-rule="evenodd">
    <path fill="#e30a17" d="M0 0h640v480H0z"/>
    <path fill="#fff" d="M407 247.5c0 66.2-54.6 119.9-122 119.9s-122-53.7-122-120 54.6-119.8 122-119.8 122 53.7 122 119.9z"/>
    <path fill="#e30a17" d="M413 247.5c0 53-43.6 95.9-97.5 95.9s-97.6-43-97.6-96 43.7-95.8 97.6-95.8 97.6 42.9 97.6 95.9z"/>
    <path fill="#fff" d="M430.7 191.5l-1 44.3-41.3 11.2 40.8 14.5-1 40.7 26.5-31.8 40.2 14-23.2-34.1 28.3-33.9-43.5 12-25.8-37z"/>
  </g>
</symbol><symbol id="warning" viewBox="0 0 5 15">
  <path d="M2.49998 11.9375C3.07422 11.9375 3.55221 11.4976 3.60058 10.9253L4.34715 2.0088C4.39061 1.49167 4.21527 0.98045 3.86425 0.598629C3.51366 0.217299 3.01856 0 2.49998 0C1.98141 0 1.48631 0.217299 1.13569 0.598629C0.78461 0.98045 0.609361 1.49167 0.652821 2.0088L1.39939 10.9253C1.44775 11.4976 1.92575 11.9375 2.49998 11.9375Z"/>
  <path d="M2.49996 12.5938C1.83537 12.5938 1.29681 13.1323 1.29681 13.7969C1.29681 14.4615 1.83537 15 2.49996 15C3.16454 15 3.7031 14.4615 3.7031 13.7969C3.7031 13.1323 3.16454 12.5938 2.49996 12.5938Z"/>
</symbol></svg>